<svg width="84" height="20" viewBox="0 0 84 20" fill="none" xmlns="http://www.w3.org/2000/svg">
<path d="M81.5 1.25H66.4961C65.8086 1.25 65.25 1.81641 65.25 2.51172V17.4883C65.25 18.1836 65.8086 18.75 66.4961 18.75H81.5C82.1875 18.75 82.75 18.1836 82.75 17.4883V2.51172C82.75 1.81641 82.1875 1.25 81.5 1.25ZM70.5391 16.25H67.9453V7.89844H70.543V16.25H70.5391ZM69.2422 6.75781C68.4102 6.75781 67.7383 6.08203 67.7383 5.25391C67.7383 4.42578 68.4102 3.75 69.2422 3.75C70.0703 3.75 70.7461 4.42578 70.7461 5.25391C70.7461 6.08594 70.0742 6.75781 69.2422 6.75781ZM80.2617 16.25H77.668V12.1875C77.668 11.2188 77.6484 9.97266 76.3203 9.97266C74.9688 9.97266 74.7617 11.0273 74.7617 12.1172V16.25H72.168V7.89844H74.6562V9.03906H74.6914C75.0391 8.38281 75.8867 7.69141 77.1484 7.69141C79.7734 7.69141 80.2617 9.42188 80.2617 11.6719V16.25Z" fill="#292830"/>
<path d="M16.875 1.25H3.125C2.62772 1.25 2.15081 1.44754 1.79917 1.79917C1.44754 2.15081 1.25 2.62772 1.25 3.125L1.25 16.875C1.25 17.3723 1.44754 17.8492 1.79917 18.2008C2.15081 18.5525 2.62772 18.75 3.125 18.75H8.48633V12.8004H6.02539V10H8.48633V7.86562C8.48633 5.43789 9.93164 4.09687 12.1453 4.09687C13.2055 4.09687 14.3141 4.28594 14.3141 4.28594V6.66875H13.0926C11.8891 6.66875 11.5137 7.41562 11.5137 8.18164V10H14.2004L13.7707 12.8004H11.5137V18.75H16.875C17.3723 18.75 17.8492 18.5525 18.2008 18.2008C18.5525 17.8492 18.75 17.3723 18.75 16.875V3.125C18.75 2.62772 18.5525 2.15081 18.2008 1.79917C17.8492 1.44754 17.3723 1.25 16.875 1.25Z" fill="#292830"/>
<path d="M48.875 1.25H35.125C34.0898 1.25 33.25 2.08984 33.25 3.125V16.875C33.25 17.9102 34.0898 18.75 35.125 18.75H48.875C49.9102 18.75 50.75 17.9102 50.75 16.875V3.125C50.75 2.08984 49.9102 1.25 48.875 1.25ZM46.9648 7.45312C46.9727 7.5625 46.9727 7.67578 46.9727 7.78516C46.9727 11.1719 44.3945 15.0742 39.6836 15.0742C38.2305 15.0742 36.8828 14.6523 35.75 13.9258C35.957 13.9492 36.1562 13.957 36.3672 13.957C37.5664 13.957 38.668 13.5508 39.5469 12.8633C38.4219 12.8398 37.4766 12.1016 37.1523 11.0859C37.5469 11.1445 37.9023 11.1445 38.3086 11.0391C37.1367 10.8008 36.2578 9.76953 36.2578 8.52344V8.49219C36.5977 8.68359 36.9961 8.80078 37.4141 8.81641C37.0627 8.58267 36.7746 8.26557 36.5756 7.89342C36.3765 7.52127 36.2727 7.10563 36.2734 6.68359C36.2734 6.20703 36.3984 5.76953 36.6211 5.39062C37.8828 6.94531 39.7773 7.96094 41.9023 8.07031C41.5391 6.33203 42.8398 4.92188 44.4023 4.92188C45.1406 4.92188 45.8047 5.23047 46.2734 5.73047C46.8516 5.62109 47.4062 5.40625 47.8984 5.11328C47.707 5.70703 47.3047 6.20703 46.7734 6.52344C47.2891 6.46875 47.7891 6.32422 48.25 6.125C47.9023 6.63672 47.4648 7.08984 46.9648 7.45312Z" fill="#292830"/>
</svg>
